<?xml version="1.0" encoding="UTF-8"?>
<svg width="2in" height="2in" version="1.1" viewBox="0 0 50.8 50.8" xmlns="http://www.w3.org/2000/svg">
 <g stroke="#000" stroke-linecap="square">
  <rect x="-160.77" y="-129.92" width="668.93" height="544.3" display="none" stroke-width=".129"/>
  <circle cx="150" cy="150" r="199.96" display="none" fill="#f2f2f2" stroke-width=".073701"/>
  <circle cx="150" cy="150" r="155.93" display="none" fill="#4d4d4d" stroke-width=".13005"/>
  <circle cx="150" cy="150" r="149.96" display="none" stroke-width=".088357"/>
 </g>
 <circle cx="150.96" cy="150.96" r="149.96" display="none" fill="none" opacity=".768" stroke="#fe0000" stroke-linecap="square" stroke-width="2"/>
 <circle cx="150.96" cy="150.96" r="199.62" display="none" fill="none" opacity=".768" stroke="#fe0000" stroke-linecap="square" stroke-width="2.6624"/>
 <text x="-23.834412" y="150.95551" font-family="sans-serif" font-size="19.756px" letter-spacing="0px" stroke-width=".26458" word-spacing="0px" style="font-variant-caps:normal;font-variant-east-asian:normal;font-variant-ligatures:normal;font-variant-numeric:normal;line-height:0" xml:space="preserve"/>
 <circle cx="25.4" cy="25.4" r="25.4" fill="#fff"/>
 <ellipse cx="25.099" cy="25.4" rx="21.727" ry="21.727"/>
 <path d="m25.098 7.4536a17.947 17.947 0 0 0-17.947 17.947 17.947 17.947 0 0 0 16.169 17.858c-0.02134-0.08972-0.04298-0.17947-0.06874-0.28406-0.13083-0.52945-0.1989-0.73441-0.24932-0.75081-0.1042-0.03391-0.12471-0.1504-0.15052-0.85409-0.01803-0.49551-0.03537-0.63457-0.07445-0.60213-0.02795 0.02321-0.07364 0.11842-0.10163 0.21158-0.0522 0.17448-0.11611 0.21715-0.15873 0.10606-0.03587-0.09351-0.07966-0.07744-0.13805 0.05059-0.1208 0.26509-0.16782-0.13517-0.08557-0.72724 0.02485-0.17815 0.03337-0.33574 0.01874-0.35017-0.03567-0.03551-0.10283 0.07229-0.13366 0.21411-0.03387 0.15564-0.06894 0.14631-0.15882-0.04192-0.05992-0.1256-0.17984-0.86463-0.19363-1.193-5e-3 -0.11403-0.11732 0.07789-0.22022 0.37559l-0.09629 0.2788-0.01333-0.31665c-0.01693-0.40645 0.04739-0.96139 0.22749-1.9632 0.07916-0.4412 0.1568-0.92568 0.17227-1.0766 0.02585-0.25255 0.02244-0.26978-0.04208-0.21646-0.03868 0.03186-0.07004 0.0474-0.07004 0.03458 0-0.01283 0.05621-0.37143 0.12498-0.79682 0.25999-1.6087 0.40236-3.5151 0.33992-4.5521l-0.02154-0.35889-0.07785 0.19605c-0.04288 0.10784-0.11058 0.34537-0.15048 0.52779-0.06002 0.27487-0.08657 0.33168-0.1543 0.33168-0.07264 0-0.08076-0.02789-0.07274-0.25332l9e-3 -0.25332-0.06252 0.13903c-0.03457 0.07647-0.08777 0.29492-0.11854 0.48549l-0.05601 0.34652-0.03828-0.21108c-0.04048-0.22366-0.04529-1.2796-0.01483-3.1877 0.01994-1.2571-4e-3 -1.4965-0.23904-2.4258-0.28392-1.1209-0.80537-2.1389-1.351-2.6375-0.30399-0.27783-0.40483-0.32792-0.85958-0.42717-0.96274-0.21012-1.8978-0.32378-4.1599-0.50559-2.9461-0.23681-3.9208-0.33286-4.6823-0.46143-0.41576-0.07024-0.76368-0.1354-0.77321-0.14491-0.024649-0.02465 0.31268-0.68685 0.46502-0.91265 0.97952-1.452 2.6365-2.4771 5.6027-3.4661 2.1898-0.73013 3.7722-1.0611 5.1086-1.0684 0.86998-5e-3 0.78704 0.02365 2.0477-0.70177 2.2009-1.2664 3.5214-1.7063 5.2843-1.7604 1.1273-0.03457 2.1156 0.09048 2.9064 0.36787 0.45544 0.15975 1.6818 0.74876 2.2263 1.0692 0.88361 0.52009 2.1209 1.612 3.0437 2.686 1.0793 1.2563 1.9486 2.597 3.7657 5.8079 0.45993 0.81273 1.1539 2.0097 1.5421 2.6599 0.38825 0.65019 0.82453 1.4102 0.96958 1.6888 0.12104 0.23258 0.21699 0.41282 0.31187 0.56731a17.947 17.947 0 0 0 0.34512-3.5018 17.947 17.947 0 0 0-17.947-17.947z" fill="#fff"/>
</svg>
